<?xml version="1.0" encoding="UTF-8" standalone="no"?>
<!-- Created with Inkscape (http://www.inkscape.org/) -->

<svg
   xmlns:osb="http://www.openswatchbook.org/uri/2009/osb"
   xmlns:dc="http://purl.org/dc/elements/1.1/"
   xmlns:cc="http://creativecommons.org/ns#"
   xmlns:rdf="http://www.w3.org/1999/02/22-rdf-syntax-ns#"
   xmlns:svg="http://www.w3.org/2000/svg"
   xmlns="http://www.w3.org/2000/svg"
   xmlns:xlink="http://www.w3.org/1999/xlink"
   xmlns:sodipodi="http://sodipodi.sourceforge.net/DTD/sodipodi-0.dtd"
   xmlns:inkscape="http://www.inkscape.org/namespaces/inkscape"
   id="svg1901"
   sodipodi:docname="purzen_Archaic_drawing_of_a_bird_wing.svg"
   viewBox="0 0 128 128"
   sodipodi:version="0.32"
   version="1.0"
   inkscape:output_extension="org.inkscape.output.svg.inkscape"
   inkscape:version="0.48.5 r10040"
   width="100%"
   height="100%"
   inkscape:export-filename="/home/nirgal/kod/ngw/core/static/ngw/nike.png"
   inkscape:export-xdpi="90"
   inkscape:export-ydpi="90">
  <defs
     id="defs3165">
    <linearGradient
       id="linearGradient5934"
       osb:paint="solid">
      <stop
         style="stop-color:#ffffff;stop-opacity:0.78325123;"
         offset="0"
         id="stop5936" />
    </linearGradient>
    <linearGradient
       id="linearGradient4484"
       osb:paint="solid">
      <stop
         style="stop-color:#000000;stop-opacity:1;"
         offset="0"
         id="stop4486" />
    </linearGradient>
    <linearGradient
       id="linearGradient4478"
       osb:paint="solid">
      <stop
         style="stop-color:#000000;stop-opacity:1;"
         offset="0"
         id="stop4480" />
    </linearGradient>
    <linearGradient
       inkscape:collect="always"
       xlink:href="#linearGradient5934"
       id="linearGradient5938"
       x1="348.96661"
       y1="426.29218"
       x2="413.04568"
       y2="426.29218"
       gradientUnits="userSpaceOnUse" />
  </defs>
  <sodipodi:namedview
     id="base"
     bordercolor="#666666"
     inkscape:pageshadow="2"
     inkscape:window-y="0"
     pagecolor="#ffa3b5"
     gridtolerance="10000"
     inkscape:window-height="843"
     inkscape:zoom="0.70710678"
     inkscape:window-x="0"
     showgrid="false"
     borderopacity="1.0"
     inkscape:current-layer="layer1"
     inkscape:cx="-96.194002"
     inkscape:cy="-5.0959202"
     showguides="true"
     inkscape:guide-bbox="true"
     inkscape:window-width="1440"
     inkscape:pageopacity="0"
     inkscape:document-units="px"
     fit-margin-top="0"
     fit-margin-left="0"
     fit-margin-right="0"
     fit-margin-bottom="0"
     inkscape:window-maximized="1">
    <inkscape:grid
       type="xygrid"
       id="grid3708"
       empspacing="5"
       visible="true"
       enabled="true"
       snapvisiblegridlinesonly="true"
       originx="-159.79929px"
       originy="63.292895px" />
  </sodipodi:namedview>
  <g
     id="layer1"
     inkscape:label="Taso 1"
     inkscape:groupmode="layer"
     transform="translate(-444.7633,-428.30526)">
    <g
       transform="matrix(0.15064391,0,0,0.38107747,362.95549,200.12693)"
       inkscape:label="Layer 1"
       id="layer1-9">
      <g
         transform="matrix(0.41746,0,0,0.41746,3021.8,697.11)"
         inkscape:export-filename="/home/sarato/Documents/sterlingsylver2.png"
         inkscape:export-xdpi="26.530001"
         inkscape:export-ydpi="26.530001"
         id="g3132">
        <path
           d="m -4143.8,-234.75 c -3.695,1.423 -8.9077,-1.6421 -11.75,2.5 -12.771,10.774 -23.74,23.359 -36.495,34.221 -7.6055,7.0757 -15.213,13.919 -23.036,20.717 10.044,-13.74 19.248,-28.771 23.406,-45.375 -0.1017,-9.3147 -14.321,-13.546 -19.312,-5.625 -31.748,30.49 -65.177,59.634 -103.7,81.569 -42.326,25.167 -88.669,42.582 -134.48,60.44 -35.092,16.872 -64.782,49.374 -69.449,89.209 -4.1464,29.758 9.4492,57.825 19.545,84.955 6.4898,22.711 7.0028,47.498 1.3061,70.455 -13.65,38.057 -48.654,64.568 -85.695,77.496 -26.272,6.9407 -53.702,1.7225 -80.406,0.6875 -13.166,-1.1725 -28.272,-1.8257 -39.25,6.4688 -0.7675,4.383 -5.0729,0.4617 -8.1875,0.7187 -8.7129,-1.9853 -17.961,1.6114 -22.594,9.25 -7.1707,10.127 -12.273,21.638 -19.837,31.585 -12.35,18.956 -25.929,37.151 -36.85,56.946 1.4544,13.391 12.267,23.113 21.188,32.094 3.4184,2.6168 10.098,2.4687 9.4374,8.0625 2.7796,11.762 9.1748,22.041 14.281,32.938 6.2378,10.431 14.872,21.602 27.25,24.312 10.159,-1.128 13.302,-13.561 10.567,-21.936 0.1548,-4.3402 -1.254,-10.172 -0.8796,-13.72 5.1089,0.8555 10.378,-1.0654 14.062,-4.5938 5.5842,28.751 15.437,56.956 31.062,81.719 7.5224,10.557 17.845,21.998 31.625,22.781 5.6952,-0.9519 9.3499,-6.7367 9.6562,-12.156 4.4989,3.3292 10.549,5.2886 15.875,4.2187 5.2563,8.3465 15.634,16.687 25.969,12.219 1.6489,-0.09 2.4818,4.0533 4.5312,4.9687 14.311,16.382 32.865,32.061 55.281,34.312 2.6555,0.656 5.6812,-4.1353 6.9063,-1.125 8.1748,12.003 22.096,18.185 35.25,23.125 8.4817,2.02 13.953,-8.5679 10.562,-15.562 -2.968,-6.7595 -9.6267,-11.003 -13.383,-17.416 -8.1824,-10.844 -15.558,-22.28 -22.711,-33.834 17.176,19.272 36.734,39.104 62.5,45.938 6.3197,1.0899 15.581,1.545 18.812,-5 2.9207,-14.156 -8.1155,-25.572 -11.624,-38.448 -9.6734,-24.015 -18.064,-49.309 -28.845,-72.583 2.3676,1.3725 8.2983,-1.3916 7.4688,2.6875 2.1698,11.823 12.219,20.352 19.215,29.646 26.46,31.588 56.002,64.045 96.347,76.947 13.274,4.0483 27.792,4.8024 41.188,0.75 3.0559,-12.312 -7.6482,-21.816 -15.281,-29.625 -22.879,-27.016 -43.074,-55.902 -63.906,-84.562 38.776,35.803 80.819,70.29 130.31,89.944 18.858,7.0513 41.765,8.5212 59.343,-2.7563 8.5188,-4.9065 7.6419,-17.935 -0.1876,-23.031 -36.047,-32.606 -71.052,-66.503 -108,-98.156 42.704,24.234 86.84,49.156 136.09,56.25 26.135,3.016 55.183,-1.9202 74.438,-20.906 5.2428,-5.6514 4.8123,-16.677 -3.25,-19.562 -7.9628,-3.1859 -15.976,-5.7989 -23.469,-10.188 -43.943,-20.798 -86.035,-45.318 -129.06,-68.094 62.813,16.577 127.99,32.776 193.38,24 26.427,-3.7829 53.086,-16.877 66.906,-40.438 3.5874,-6.2711 1.881,-17.633 -7.1153,-17.413 -69.888,-13.529 -139.02,-31.314 -207.23,-51.556 3.0684,-0.9886 5.4168,-6.2495 8.6562,-3.4063 11.372,4.202 23.054,-1.8221 34.506,-2.2186 60.227,-9.1185 122.37,-14.329 178.71,-38.906 27.959,-13.424 52.352,-37.942 58.114,-69.346 2.8976,-12.135 6.1498,-26.062 0.7605,-37.873 -6.6914,-6.9707 -16.427,-1.0437 -24.322,-0.134 -73.81,16.146 -148.2,29.691 -223.02,40.228 58.615,-25.494 119.07,-47.29 174.88,-78.687 30.036,-17.735 62.047,-37.615 77.656,-70.031 8.4644,-17.17 10.042,-37.721 4.5938,-56.031 -1.8721,-6.284 -8.2666,-12.233 -15.125,-9.3125 -23.833,10.506 -48.349,20.1 -72.565,29.993 -57.892,23.385 -116.67,44.642 -176.08,63.726 -3.0886,0.849 -6.819,3.6935 -9.4796,3.3427 -1.8875,-3.8064 -5.2144,-6.4846 -8.5938,-8.9375 74.203,-39.285 154.75,-69.966 219.44,-124.91 25.936,-23.124 43.868,-57.31 41.648,-92.906 0.3664,-7.284 -0.074,-18.603 -8.9917,-20.313 -10.901,-1.8391 -19.708,7.0533 -29.39,10.7 -81.493,40.693 -165.19,76.884 -249.39,111.77 27.444,-21.975 54.748,-46.58 69.375,-79.156 6.0836,-15.364 7.5694,-32.893 2.9687,-48.875 -0.7083,0.2708 -1.4167,0.5417 -2.125,0.8125 z m -1547.2,0.062 c -8.0566,0.018 -10.862,9.3184 -9.9063,15.969 -1.326,30.378 17.077,57.132 37.656,77.688 11.466,12.101 24.126,23.035 37.219,33.438 -91.589,-37.775 -182.33,-77.668 -270.75,-122.25 -7.549,-2.8953 -17.708,2.831 -16.397,11.556 -4.2948,35.879 10.265,72.688 36.584,96.882 29.987,29.327 67.774,49.074 104.11,69.467 39.63,20.912 80.356,39.423 120.08,60.095 -3.7991,2.1399 -7.2148,5.9633 -9.25,9.25 -15.598,-6.9718 -32.419,-10.964 -48.5,-16.844 -70.617,-23.122 -139.43,-51.546 -208.03,-79.719 -5.1883,-2.5945 -11.478,-0.951 -14.344,4.2187 -4.8009,8.8548 -5.0751,19.552 -5.1562,29.469 1.1369,28.421 18.807,53.159 40.258,70.496 29.855,24.715 65.68,41.366 100.5,58.235 39.211,18.06 79.662,33.45 119.33,50.55 -80.81,-10.292 -160.84,-27.276 -240.72,-43.219 -9.1005,1.28 -10.379,12.19 -9.0625,19.531 1.3042,33.403 18.618,66.72 48.185,83.321 37.357,23.104 81.975,28.893 124.49,36.819 32.398,4.9239 64.908,9.9213 97.414,13.61 3.6393,-0.2872 7.305,-4.3201 10.126,-0.2625 7.1263,3.0099 -2.0088,3.3456 -5.2914,4.6946 -63.596,18.147 -127.48,35.418 -192.47,47.651 -5.2032,1.6084 -13.284,0.4197 -14.456,7.1672 -2.9632,11.285 7.1209,19.981 13.875,27.375 22.835,22.066 56.4,26.847 86.937,27.146 54.235,0.7612 107.19,-12.768 159.41,-25.959 -47.735,25.617 -94.674,52.942 -144.16,74.844 -7.3432,1.3726 -16.917,8.0152 -13.844,16.594 9.2289,16.962 29.521,22.66 47.156,26.344 41.074,5.6379 80.57,-11.416 116.7,-28.798 16.955,-8.3496 33.679,-17.254 49.958,-26.89 -38.333,33.748 -76.394,68.037 -112.88,103.69 -4.5916,8.6404 2.7121,19.025 11.562,20.812 23.05,10.319 49.534,2.4346 70.813,-8.5938 41.558,-20.717 77.856,-50.361 111.81,-81.75 -24.258,33.664 -48.12,67.542 -76.062,98.188 -3.046,4.6506 -3.9001,10.509 -2.8438,15.938 28.346,7.1225 57.526,-4.0161 80.053,-20.773 29.022,-22.623 54.108,-50.303 75.009,-80.571 1.628,-2.377 1.108,-6.6115 2.3125,-8.3125 2.3484,0.2328 4.6845,-0.1592 6.9688,-0.625 -15.205,33.856 -27.169,69.209 -41.375,103.44 -1.3495,7.2931 5.2351,14.866 12.844,13.031 21.045,-0.5396 37.754,-15.705 52.719,-28.906 6.0657,-5.7398 11.764,-11.892 17.094,-18.344 -11.496,18.69 -24.47,36.244 -37.5,53.719 -3.1614,8.3179 7.6348,18.325 15.25,12.656 12.464,-4.8453 24.665,-12.271 32.625,-22.75 8.438,5.1895 18.429,-0.7166 26.406,-4.0937 15.492,-7.8177 28.184,-19.988 39,-33.438 9.0817,4.9614 19.384,-2.2945 24.406,-9.75 0.7403,-2.4956 2.1613,-2.8696 4.3125,-1.7813 4.8248,0.8116 9.9052,-3.1379 13.219,-4.2187 0.171,7.6963 8.316,14.425 15.781,10.938 14.915,-5.3285 24.324,-19.595 32.062,-32.781 11.368,-20.989 18.391,-44.205 23.969,-67.344 0.1837,-3.3853 0.5694,-4.4438 3.2813,-1.5 3.2616,2.5682 8.2839,3.1459 11.781,2.75 -1.2732,9.5213 -3.0619,19.788 -0.4688,29.156 3.8565,7.1713 14.924,8.065 19.938,1.6875 17.499,-13.456 25.496,-35.287 32.156,-55.688 -0.8279,-2.1187 3.7182,-1.0915 4.6562,-2.8437 9.0756,-4.3755 14.134,-13.728 20.562,-21.094 4.8995,-6.6812 5.3652,-16.623 -0.9195,-22.655 -17.846,-27.604 -36.453,-54.646 -53.83,-82.501 -6.7907,-7.6144 -18.412,-7.4174 -27.312,-4.0313 -4.1694,-8.8495 -15.649,-8.1293 -23.844,-9.4687 -19.038,-0.315 -37.902,3.16 -56.937,3.125 -21.925,1.3715 -44.618,-1.6077 -63.351,-13.596 -29.257,-15.723 -55.887,-41.047 -63.93,-74.186 -4.5796,-26.914 -1.7747,-55.16 9.3605,-80.207 9.0537,-22.283 17.244,-46.19 13.046,-70.543 -5.8752,-39.297 -35.433,-71.588 -70.871,-87.478 -25.983,-11.923 -53.873,-19.44 -79.498,-32.236 -56.562,-25.628 -108.96,-60.732 -152.33,-105.12 -4.9298,-4.1209 -12.166,-11.134 -18.923,-6.757 -6.5383,4.3609 -5.8875,13.853 -1.5313,19.5 5.2125,12.163 12.006,23.504 19.812,34.156 -21.362,-18.319 -41.208,-38.884 -62.656,-57.031 -1.106,-0.2927 -2.2635,-0.3855 -3.4063,-0.2813 z m 1424.2,550.53 c 2.1692,3.9575 -4.4469,1.1415 -1.9688,0.5937 0.6278,0.01 1.6115,-0.8666 1.9688,-0.5937 z m -1305.5,0.125 c 3.7738,-0.096 -2.4955,2.9088 -0.5938,-0.1875 z"
           inkscape:connector-curvature="0"
           style="fill:#400903"
           sodipodi:nodetypes="cccccccccccccccccccccccccccccccccccccccccccccccccccccccccccccccccccccccccccccccccccccccccccccccccccccccccccccccccccccccccccccccccccccccccccccccccccccccccccccccccccccccccccc"
           id="path3134" />
        <g
           transform="translate(-3539.9,2928.2)"
           style="fill:#dfc6b6"
           id="g3136">
          <path
             d="m -610.17,-3155.3 c -0.0963,0 -0.19619,0.019 -0.29004,0.041 -0.24906,0.064 -0.48585,0.2377 -0.70375,0.5797 -58.804,57.135 -121.35,114.67 -199.12,144.15 -25.981,10.648 -56.988,12.646 -77.289,34.236 -26.662,23.811 -35.303,60.993 -34.402,95.588 0.16919,30.985 8.055,62.723 27.323,87.432 2.5654,20.369 1.3883,42.643 -9.7286,60.523 -24.957,42.312 -73.843,64.173 -120.47001,73.605 -21.041,3.2672 -42.811,2.7261 -64.001,1.7802 -24.068,-5.1152 -47.843,-11.716 -72.156,-15.441 -1.4521,-2.9564 -10.172,-3.3652 -13.91,-4.264 -1.5148,-0.2392 -3.0123,-0.5762 -4.5535,-0.3727 -10.206,3.5129 -12.61,16.507 -19.126,24.176 -14.108,22.724 -30.035,44.357 -43.965,67.147 0.9673,6.7894 6.8697,12.909 11.384,17.967 0.59,-0.045 1.1466,-0.1918 1.6559,-0.3727 -0.8133,6.0799 8.5673,8.5558 12.668,10.805 5.243,-2.0573 4.07,-10.422 7.8656,-13.33 7.5776,-3.5614 9.1457,8.1634 13.827,11.674 8.3195,9.9576 16.36,23.32 29.517,26.619 9.3011,-2.6995 10.441,-15.054 12.916,-23.018 3.4941,-8.2884 -6.5587,-11.96 -9.1902,-18.505 3.7241,3.7705 12.195,10.95 15.814,3.5602 1.5423,-1.9797 2.3179,-11.125 2.5254,-8.9833 0.5757,6.8291 -2.809,12.699 -5.1748,18.67 3.5361,17.863 15.742,33.592 30.097,44.503 5.2411,3.7526 16.217,10.023 19.581,0.9936 3.4919,-9.878 4.6134,-20.928 4.2641,-31.213 -9.1717,-8.4485 -15.3,-19.731 -24.011,-28.358 -6.1652,-0.7463 -3.3039,7.5476 -2.4838,10.556 -2.4748,-6.4569 -5.9751,-14.447 -6.1682,-20.492 5.0192,1.5864 9.74,3.5764 11.716,8.9419 5.7915,7.757 11.118,18.468 20.946,21.402 5.8206,-0.4001 5.223,-10.452 6.1682,-11.84 0.7043,7.7774 -2.0078,15.103 -3.3531,22.48 7.5763,21.109 23.728,41.98 46.448,47.401 6.335,2.42 12.8,-1.9982 12.833,-8.8178 0.7048,-10.156 2.5156,-21.311 -0.2066,-30.966 -9.1262,-3.9066 -17.102,-12.656 -22.48,-19.332 6.9913,3.5428 12.501,13.429 21.03,12.171 5.543,-4.6631 3.6557,-13.337 5.0506,-19.789 1.6067,12.872 0.5826,27.21 10.474,37.34 10.677,12.858 23.78501,26.755 40.86001,29.765 7.1418,-4.8139 5.9212,-15.755 7.7413,-23.307 2.3618,-8.3156 2.1156,-16.394 -6.3752,-20.782 -3.6597,-3.5152 -7.8512,-8.0189 -10.184,-11.757 6.6675,3.4117 12.638,13.657 21.03,11.094 6.4182,-7.8645 2.697,-20.004 3.0635,-29.102 3.474,6.2069 1.3276,15.336 2.3596,22.52 -0.52424,8.8486 -0.27837,17.803 8.3624,22.727 9.9066,9.4329 21.787,21.088 36.389,20.741 6.7917,-5.5606 9.271,-15.513 11.426,-23.762 0.83326,-11.401 2.1774,-23.424 0.62103,-34.567 -8.7238,-6.9832 -17.317,-14.126 -25.129,-22.148 9.4731,5.0022 17.11,15.009 27.944,16.849 6.8656,-3.3581 2.2926,-13.51 3.3532,-19.374 -1.8801,-5.7679 0.0132,-14.138 6.3754,-10.598 3.7892,8.6297 8.453,19.746 10.97,27.199 -3.7446,-3.3938 -6.9966,-17.427 -12.419,-11.798 -1.2066,11.807 -4.0196,24.925 4.5538,34.816 7.7563,11.479 19.068,21.66 32.705,24.755 5.9464,-12.367 3.0971,-27.321 2.9806,-40.736 -0.1471,-7.7455 -4.415,-17.06 -5.2989,-23.06 21.555,10.392 42.828,28.373 68.348,23.928 5.8416,0.138 11.883,-4.099 9.2316,-10.557 -3.427,-15.112 -8.0759,-31.003 -18.132,-43.054 -6.0755,-5.0996 -13.243,-8.572 -19.748,-12.916 5.1467,0.3821 13.078,7.4973 16.973,1.863 1.1193,-9.2071 -2.8294,-18.236 -6.2096,-26.619 7.6941,8.299 8.9043,19.952 13.206,29.599 15.227,8.5335 34.227,9.2378 51.333,6.9963 13.808,-2.3651 27.975,-7.7576 38.375,-17.139 -0.17108,-7.484 -8.1745,-12.466 -12.129,-18.298 -14.248,-15.682 -32.089,-28.762 -53.196,-33.16 -9.1964,-3.1345 -2.207,-1.3132 3.6844,-0.082 4.7256,0.8133 15.912,3.6191 14.696,-4.5537 -1.8131,-7.0784 -5.2494,-13.618 -8.1968,-20.286 8.1112,8.6128 10.62,21.237 18.919,29.434 14.664,4.555 31.039,2.9 46.325,2.2768 14.371,-1.3003 29.04,-5.8438 39.99,-15.234 -11.37,-21.258 -34.963,-35.288 -58.661,-38.5 -8.2695,-0.2657 -20.986,1.8623 -26.494,-0.9935 7.7816,0.319 16.196,0.6349 23.432,-2.194 -1.1962,-7.7547 -8.403,-13.796 -12.751,-20.327 7.9732,6.4384 13.525,15.407 21.404,21.651 26.36,0.7844 55.676,-3.4117 75.593,-22.064 4.7607,-3.8935 6.1461,-10.727 1.4073,-15.276 -13.492,-19.961 -39.2,-26.481 -62.137,-24.053 -8.345,0.2513 -17.719,-1.1441 -22.603,7.3688 -2.467,3.4291 -11.668,8.4216 -5.9613,12.171 9.6617,1.3258 19.41,2.0795 29.102,3.1462 -13.192,-0.5932 -26.908,0.078 -39.287,-4.3054 -6.4622,-1.1357 -15.202,0.4649 -20.45,-1.3661 7.3735,-2.0733 16.705,-0.5738 23.556,-5.7543 4.04,-3.6128 15.779,-8.4699 8.9832,-14.199 -5.3387,-6.7848 -15.853,-12.829 -20.45,-17.304 10.128,4.7227 19.693,11.642 28.233,18.298 23.328,-6.6331 50.03,-14.913 62.883,-37.174 -2.0082,-8.3994 -11.471,-12.978 -18.464,-17.015 -12.073,-4.4341 -24.655,-10.613 -37.671,-10.267 -10.87,7.1378 -20.728,15.559 -32.869,20.905 -2.3828,8.5491 14.562,2.6836 20.12,4.4297 12.417,-0.356 10.517,0.3925 -0.5382,1.4903 -9.079,0.1231 -19.164,4.2356 -27.778,1.5731 -1.1459,-2.5119 -5.6102,-7.334 -0.4553,-8.0312 11.763,-4.8092 24.523,-10.381 32.539,-20.533 0.91103,-7.3157 -9.7284,-8.8105 -13.951,-12.792 -8.2083,-5.0653 -17.847,-9.6186 -25.376,-14.821 0.52268,-8.4516 11.269,-5.9288 16.807,-7.6173 7.6222,-0.832 15.216,-1.7776 22.852,-2.4839 -10.224,3.2439 -22.746,3.3119 -31.751,8.7763 -0.63763,6.2544 9.5837,5.8089 13.082,9.4801 10.507,4.1117 19.117,15.722 31.213,14.199 19.343,-7.5746 39.031,-17.492 53.196,-33.077 6.1018,-6.9507 -4.4123,-12.485 -9.2731,-15.814 -17.468,-10.736 -38.97,-18.479 -59.488,-14.655 -7.9526,12.028 -19.538,22.452 -33.615,26.081 10.383,-7.6654 23.945,-15.187 28.233,-28.192 -2.2555,-8.1203 -13.746,-7.2081 -20.367,-9.1906 -9.2591,-1.454 -18.609,-2.0023 -27.943,-2.815 12.978,-7.8029 26.632,-17.09 34.112,-30.511 -0.55641,-7.8671 -11.892,-7.8091 -17.015,-11.426 -10.777,-3.8562 3.5692,-0.1101 6.4996,0.6624 6.7236,1.909 13.682,3.6921 19.789,6.8306 -2.8638,6.7912 -8.9079,12 -11.136,19.002 4.5558,3.0792 9.1836,1.5323 1.4489,3.4774 -4.4984,-0.111 -14.361,5.0862 -9.0248,9.7699 10.284,3.0839 21.016,5.0326 31.007,8.7763 15.832,-3.4823 28.83,-15.61 38.375,-28.233 4.3965,-4.4388 1.4912,-10.976 -4.4297,-11.798 -10.277,-4.1364 -21.245,-6.1582 -32.084,-8.4037 85.242,-35.075 171.63,-67.606 255.63,-105.52 -61.656,33.849 -127.61,58.523 -192.7,84.906 -12.865,5.6423 -26.861,9.4793 -38.913,16.559 -0.96491,6.8499 9.3775,6.5433 13.661,9.2731 4.1147,2.2269 10.973,3.9054 12.751,8.3624 -4.9884,13.988 -16.22,24.151 -24.672,35.726 4.2952,5.9613 14.768,6.5821 21.32,10.556 9.7236,6.8813 18.811,-4.3233 28.026,-7.1204 63.195,-32.295 129.31,-60.389 186.66,-102.63 28.08,-20.669 53.211,-50.049 55.39,-86.481 0.53702,-8.6955 1.443,-17.804 -0.49699,-26.328 -6.06,-3.4485 -12.674,4.3742 -18.629,5.713 -102.08,51.82 -208.03,95.752 -314.04,139.1 38.192,-28.868 79.708,-56.304 107.3,-96.332 10.247,-15.443 16.068,-34.752 12.833,-53.072 -0.66468,0.07 -1.3956,-0.5211 -2.0697,-0.5381 z m -52.575,2.1526 c -0.22697,0.036 -0.43637,0.093 -0.6624,0.2066 -21.056,18.27 -40.02,38.628 -63.091,54.769 -48.574,36.77 -104.32,62.73 -161.74,83.086 -37.713,13.263 -73.692,42.297 -81.305,83.416 -6.9039,28.011 5.0307,55.458 15.276,80.933 9.3054,22.995 8.9783,48.731 6.7477,73.15 -10.024,43.477 -48.502,74.872 -88.26,90.62 -22.633,8.9588 -48.058,4.5946 -72.032,4.3055 -16.109,-0.4331 -33.702,-5.5942 -48.933,1.9045 -2.085,6.5759 9.0329,5.3045 12.751,7.3274 41.476,9.7014 84.751,18.493 127.13,8.6521 48.313,-9.9563 94.619,-44.748 107.06,-93.932 3.5371,-20.996 1.8792,-43.03 -5.5885,-62.842 -13.136,-41.797 -17.09,-90.395 4.8022,-129.95 16.462,-30.405 48.625,-47.843 81.18,-55.887 46.325,-14.055 88.798,-40.874 122.79,-75.013 19.642,-19.255 37.167,-41.599 46.614,-67.727 0.3667,-1.7189 -1.1447,-3.2816 -2.7323,-3.022 z m 286.05,151.76 c -0.17561,-0.019 -0.3633,0 -0.53834,0.041 -54.467,22.472 -108.85,45.49 -164.43,64.994 -31.291,12.041 -63.941,20.569 -95.008,32.911 -8.9015,6.1102 -15.224,15.614 -22.189,23.928 -2.3122,6.0125 6.4866,4.0311 9.4387,2.815 75.064,-21.757 148.2,-49.962 221.48,-77.041 -63.816,30.354 -131.89,50.921 -198.66,74.06 -15.568,5.6888 -32.325,9.2972 -47.194,16.145 2.7448,6.8609 13.377,7.6961 18.877,12.916 4.8885,4.1383 12.762,7.5861 14.655,14.034 -4.2537,13.647 -17.8,21.59 -27.737,31.09 -3.1653,6.2782 5.8444,6.3784 9.5628,7.1619 7.1777,3.5711 15.271,5.6259 22.397,0.4552 68.486,-29.478 139.57,-54.286 203.18,-93.683 28.42,-18.231 58.619,-43.277 62.22,-79.277 -0.26946,-9.9109 0.48377,-21.252 -4.5538,-30.014 -0.44204,-0.2734 -0.9649,-0.5053 -1.4902,-0.5383 z m -6.9135,171.26 c -81.464,18.162 -163.58,33.371 -246.32,44.503 -5.032,5.3068 6.639,11.125 8.7763,16.476 3.535,3.4089 5.901,8.263 1.7387,12.171 -2.2227,7.1097 7.9275,3.9161 11.591,3.3532 56.395,-9.7412 112.18,-22.85 168.53,-32.788 -60.2,18.16 -122.89,27.522 -184.63,39.535 -15.882,4.4684 -30.248,13.22 -46.78,15.648 -12.788,0.9039 -1.5767,9.4055 3.8086,12.585 8.7444,6.4686 14.8,16.246 21.03,24.963 8.8977,2.8413 18.777,-2.1515 27.984,-2.1113 51.408,-7.4898 103.51,-13.327 153.34,-28.441 31.965,-9.8356 65.145,-28.62 76.875,-61.89 4.8292,-13.401 7.6609,-27.975 6.872,-42.184 -0.34103,-1.1704 -1.6445,-1.9572 -2.815,-1.8216 z m -284.52,152.43 c -13.197,5.6433 -27.599,5.4596 -41.563,6.3754 -1.6953,7.1835 12.835,6.7725 17.76,10.515 50.043,18.61 101.86,34.837 154.12,44.544 -40.243,-1.5383 -78.794,-15.742 -117.2,-26.744 -17.45,-4.9588 -34.64,-12.114 -52.286,-15.731 -4.6691,5.0635 4.6942,10.31 6.3754,15.276 2.4929,5.0707 8.5999,13.691 0.57951,16.973 -5.592,5.3823 -14.296,6.9816 -19.043,13.082 0.92123,6.3174 10.74,4.762 15.359,7.3274 52.075,13.641 105.09,27.063 159.26,27.24 31.474,-0.4471 68.059,-4.2718 89.336,-30.22 2.5078,-4.215 9.1719,-8.6665 6.8306,-14.034 -49.898,-9.9883 -99.95,-21.045 -149.16,-34.899 -23.573,-6.084 -46.839,-13.886 -70.376,-19.706 z m -101.88,67.685 -0.74515,0.1245 c -5.4201,4.4306 5.0143,8.1426 7.7827,10.763 40.186,26.324 81.83,50.409 123.57,74.226 -32.888,-11.249 -62.026,-31.028 -91.944,-48.187 -15.041,-8.6407 -29.295,-18.97 -44.875,-26.453 -5.5834,3.5103 1.1054,11.151 1.2833,16.104 1.0668,6.267 5.1078,13.881 3.3532,19.829 -5.246,0.9579 -8.0036,7.4912 -1.7802,9.6457 33.87,20.399 68.699,40.084 105.52,54.686 28.639,10.713 61.182,18.801 91.117,8.7763 9.451,-4.2558 21.674,-8.1855 26.288,-18.049 -1.4277,-6.176 -10.303,-4.4698 -14.406,-8.0728 -57.626,-26.821 -112.64,-59.09 -168.82,-88.756 -11.349,-4.3098 -24.149,-1.4517 -35.892,-4.6366 h -0.45532 z m -74.06,42.558 c -0.39748,0.027 -0.79468,0.1127 -1.2005,0.2481 -0.509,15.604 1.9916,32.108 -1.449,47.277 36.615,35.53 76.464,69.456 122.21,93.103 21.035,10.419 47.35,20.012 69.549,7.2861 5.0885,-1.6395 6.3372,-7.6783 1.1592,-10.308 -44.087,-41.684 -88.805,-82.957 -135.16,-122.08 -7.0754,-6.8589 -17.732,-4.941 -26.494,-7.9071 -5.2182,-2.2787 -7.1426,4.2639 -2.6081,6.7064 32.186,34.54 67.523,66.031 101.76,98.568 -40.947,-28.502 -75.555,-65.034 -111.52,-99.397 -5.1786,-2.9426 -10.265,-13.93 -16.228,-13.496 z m -360.32,2.3595 -1.4489,0.1245 h -0.082 c -6.1603,4.2509 -9.2533,13.699 -5.0506,20.616 7.0161,17.228 14.345,37.301 31.545,46.614 6.9568,-1.242 2.7288,-11.202 3.1463,-15.98 -0.3244,-11.241 -2.289,-23.018 -11.343,-30.675 -6.3157,-6.2838 -10.014,-15.068 -16.766,-20.699 z m 59.282,28.192 c -0.7457,0.077 -1.467,0.4603 -2.1526,1.1591 0.8218,15.992 7.33,31.602 12.212,46.863 8.5795,20.748 17.669,44.792 39.08,55.266 6.1038,2.0046 6.317,-6.2177 3.9329,-9.7699 -5.6299,-19.918 -7.9417,-41.136 -16.269,-60.109 -5.7501,-4.1897 -5.9471,6.0693 -5.0092,9.4802 -3.5252,-17.468 -17.742,-29.999 -29.557,-42.101 -0.7229,-0.6421 -1.4896,-0.8639 -2.2356,-0.7865 z m 252.44,8.4866 c -0.48637,0.1075 -1.0105,0.5127 -1.4903,0.5795 -4.14,10.84 -9.22,21.351 -14.324,31.712 2.4757,10.642 12.345,18.362 18.298,27.282 26.626,31.041 56.208,64.23 97.244,75.219 8.4681,1.3634 17.639,2.3433 25.915,0.4968 -0.40018,-7.19 -9.634,-11.994 -13.33,-18.174 -28.587,-32.98 -52.722,-69.654 -78.78,-104.57 -6.3918,-2.9578 -11.594,-8.0881 -18.256,-10.35 -5.7169,2.9454 1.3107,9.9797 2.5667,14.116 13.472,25.463 29.818,50.742 44.958,74.309 -23.939,-27.461 -41.634,-60.281 -61.973,-90.329 -0.24047,-0.2964 -0.53634,-0.3546 -0.82789,-0.2897 z m -68.472,3.7258 -1.2418,0.7453 -0.41417,0.2896 c -1.8299,16.91 9.2125,31.925 15.069,47.11 7.2644,15.42 15.075,30.594 22.106,46.117 -15.056,-20.565 -24.853,-44.899 -35.643,-67.893 -6.7696,-3.3175 -7.0993,8.4665 -8.6936,12.212 -10.052,-0.1822 -18.433,-7.3166 -27.903,-8.2381 -3.25803,5.4669 4.9786,11.045 6.7064,16.311 20.582,31.56 43.015,64.26 76.048,83.79 7.4318,3.1814 16.638,8.2206 24.632,5.2162 1.369,-7.396 -5.4341,-14.733 -7.1618,-22.023 -13.042,-29.718 -22.302,-61.206 -36.844,-90.165 -9.407,-7.1914 -17.084,-16.815 -26.66,-23.473 z m -131.64,13.454 c -0.085,1e-4 -0.1669,0.045 -0.2486,0.082 -4.9738,4.2658 2.1004,11.354 3.0634,16.228 10.26,20.628 19.379,42.193 32.746,60.98 3.3643,2.5886 10.482,9.9572 13.785,4.0985 -7.0624,-14.972 -17.666,-28.945 -25.376,-43.965 -7.6681,-12.043 -12.689,-26.63 -22.148,-37.135 -0.5471,0.5241 -1.2271,-0.2906 -1.8215,-0.2897 z m 16.187,4.2225 c -0.2662,0.019 -0.5138,0.027 -0.7866,0.082 -3.8204,5.0209 3.4893,11.285 4.678,16.394 16.985,33.303 34.978,68.642 66.195,90.703 8.181,3.9544 16.706,10.075 25.998,9.9768 5.1944,-5.289 -3.7835,-12.292 -4.678,-18.008 -14.162,-31.172 -25.586,-64.144 -39.784,-95.174 -5.422,1.5569 -10.413,13.62 -6.9549,19.706 4.9424,12.745 9.9716,25.444 14.862,38.211 -9.2229,-13.666 -14.335,-29.648 -22.355,-43.798 -8.2559,-5.0777 -18.605,-6.4831 -26.453,-12.709 -3.4351,-1.6148 -6.7273,-5.6319 -10.722,-5.3817 z m -22.769,5.1747 c -0.5423,0.019 -1.0887,0.2314 -1.6974,0.621 -2.0274,8.2487 3.1905,17.03 4.5953,25.293 3.438,8.2608 3.2822,18.968 9.0248,25.709 6.2015,2.7293 11.638,9.3992 18.712,9.2731 5.1735,-4.1312 -3.8254,-12.026 -4.8849,-17.139 -7.734,-14.539 -15.144,-29.332 -24.094,-43.136 -0.6067,-0.4715 -1.1136,-0.6414 -1.656,-0.6211 z m 95.05,27.24 c -0.6374,0 -1.2578,0.2211 -1.6973,0.5795 -1.5285,7.3531 4.8592,14.523 6.8306,21.526 11.146,23.42 20.125,48.419 35.229,69.632 7.7385,6.8534 17.563,11.168 26.908,15.317 5.9707,-3.2676 -3.0779,-9.3184 -4.678,-12.916 -23.609,-28.896 -40.947,-62.196 -60.897,-93.518 -0.4413,-0.416 -1.06,-0.6238 -1.6974,-0.621 z"
             inkscape:connector-curvature="0"
             style="fill:#dfc6b6"
             id="path3138" />
          <path
             d="m -2150.2,-3155.3 c 0.097,0 0.1962,0.019 0.2901,0.041 0.249,0.064 0.4858,0.2377 0.7037,0.5797 58.804,57.135 121.35,114.67 199.12,144.15 25.981,10.648 56.988,12.646 77.289,34.236 26.662,23.811 35.303,60.993 34.402,95.588 -0.1692,30.985 -8.055,62.723 -27.323,87.432 -2.5654,20.369 -1.3883,42.643 9.7286,60.523 24.957,42.312 73.843,64.173 120.47,73.605 21.041,3.2672 42.811,2.7261 64.001,1.7802 24.068,-5.1152 47.843,-11.716 72.156,-15.441 1.4521,-2.9564 10.172,-3.3652 13.91,-4.264 1.5148,-0.2392 3.0123,-0.5762 4.5535,-0.3727 10.206,3.5129 12.61,16.507 19.126,24.176 14.108,22.724 30.035,44.357 43.965,67.147 -0.9673,6.7894 -6.8697,12.909 -11.384,17.967 -0.59,-0.045 -1.1466,-0.1918 -1.6559,-0.3727 0.8133,6.0799 -8.5673,8.5558 -12.668,10.805 -5.243,-2.0573 -4.07,-10.422 -7.8656,-13.33 -7.5776,-3.5614 -9.1457,8.1634 -13.827,11.674 -8.3195,9.9576 -16.36,23.32 -29.517,26.619 -9.3011,-2.6995 -10.441,-15.054 -12.916,-23.018 -3.4941,-8.2884 6.5587,-11.96 9.1902,-18.505 -3.7241,3.7705 -12.195,10.95 -15.814,3.5602 -1.5422,-1.9797 -2.3179,-11.125 -2.5254,-8.9833 -0.5757,6.8291 2.809,12.699 5.1748,18.67 -3.5361,17.863 -15.742,33.592 -30.097,44.503 -5.2411,3.7526 -16.217,10.023 -19.581,0.9936 -3.4919,-9.878 -4.6136,-20.928 -4.2641,-31.213 9.1717,-8.4485 15.3,-19.731 24.011,-28.358 6.1652,-0.7463 3.3039,7.5476 2.4838,10.556 2.4748,-6.4569 5.9751,-14.447 6.1682,-20.492 -5.0192,1.5864 -9.7402,3.5764 -11.716,8.9419 -5.7915,7.757 -11.118,18.468 -20.946,21.402 -5.8206,-0.4001 -5.223,-10.452 -6.1682,-11.84 -0.7043,7.7774 2.0077,15.103 3.3531,22.48 -7.5761,21.109 -23.728,41.98 -46.448,47.401 -6.335,2.42 -12.8,-1.9982 -12.833,-8.8178 -0.7048,-10.156 -2.5156,-21.311 0.207,-30.966 9.1262,-3.9066 17.102,-12.656 22.48,-19.332 -6.9913,3.5428 -12.502,13.429 -21.03,12.171 -5.543,-4.6631 -3.6557,-13.337 -5.0505,-19.789 -1.6068,12.872 -0.5826,27.21 -10.474,37.34 -10.677,12.858 -23.785,26.755 -40.86,29.765 -7.1418,-4.8139 -5.9212,-15.755 -7.7413,-23.307 -2.3618,-8.3156 -2.1156,-16.394 6.3752,-20.782 3.6596,-3.5152 7.851,-8.0189 10.184,-11.757 -6.6675,3.4117 -12.638,13.657 -21.03,11.094 -6.4182,-7.8645 -2.697,-20.004 -3.0635,-29.102 -3.474,6.2069 -1.3276,15.336 -2.3596,22.52 0.5243,8.8486 0.2784,17.803 -8.3624,22.727 -9.9066,9.4329 -21.787,21.088 -36.389,20.741 -6.7917,-5.5606 -9.271,-15.513 -11.426,-23.762 -0.8333,-11.401 -2.1774,-23.424 -0.6211,-34.567 8.7238,-6.9832 17.317,-14.126 25.129,-22.148 -9.4732,5.0022 -17.11,15.009 -27.944,16.849 -6.8657,-3.3581 -2.2925,-13.51 -3.3532,-19.374 1.8801,-5.7679 -0.019,-14.138 -6.3753,-10.598 -3.7892,8.6297 -8.4531,19.746 -10.97,27.199 3.7446,-3.3938 6.9966,-17.427 12.419,-11.798 1.2066,11.807 4.0198,24.925 -4.5537,34.816 -7.7561,11.479 -19.068,21.66 -32.705,24.755 -5.9463,-12.367 -3.0971,-27.321 -2.9806,-40.736 0.1471,-7.7455 4.4152,-17.06 5.2989,-23.06 -21.555,10.392 -42.828,28.373 -68.348,23.928 -5.8416,0.138 -11.883,-4.099 -9.2316,-10.557 3.427,-15.112 8.0759,-31.003 18.132,-43.054 6.0753,-5.0996 13.243,-8.572 19.748,-12.916 -5.1466,0.3821 -13.078,7.4973 -16.973,1.863 -1.1192,-9.2071 2.8296,-18.236 6.2096,-26.619 -7.6941,8.299 -8.9043,19.952 -13.206,29.599 -15.227,8.5335 -34.227,9.2378 -51.333,6.9963 -13.808,-2.3651 -27.975,-7.7576 -38.375,-17.139 0.1711,-7.484 8.1745,-12.466 12.13,-18.298 14.248,-15.682 32.089,-28.762 53.196,-33.16 9.1964,-3.1345 2.207,-1.3132 -3.6844,-0.082 -4.7256,0.8133 -15.912,3.6191 -14.696,-4.5537 1.8131,-7.0784 5.2494,-13.618 8.1968,-20.286 -8.1113,8.6128 -10.62,21.237 -18.919,29.434 -14.664,4.555 -31.039,2.9 -46.325,2.2768 -14.371,-1.3003 -29.04,-5.8438 -39.99,-15.234 11.37,-21.258 34.963,-35.288 58.661,-38.5 8.2695,-0.2657 20.986,1.8623 26.494,-0.9935 -7.7815,0.319 -16.196,0.6349 -23.432,-2.194 1.1962,-7.7547 8.403,-13.796 12.75,-20.327 -7.9732,6.4384 -13.525,15.407 -21.404,21.651 -26.36,0.7844 -55.676,-3.4117 -75.593,-22.064 -4.7607,-3.8935 -6.1461,-10.727 -1.4074,-15.276 13.492,-19.961 39.2,-26.481 62.137,-24.053 8.345,0.2513 17.72,-1.1441 22.603,7.3688 2.467,3.4291 11.668,8.4216 5.9613,12.171 -9.6617,1.3258 -19.41,2.0795 -29.102,3.1462 13.192,-0.5932 26.908,0.078 39.287,-4.3054 6.4622,-1.1357 15.202,0.4649 20.45,-1.3661 -7.3735,-2.0733 -16.705,-0.5738 -23.556,-5.7543 -4.04,-3.6128 -15.779,-8.4699 -8.9833,-14.199 5.3389,-6.7848 15.853,-12.829 20.45,-17.304 -10.128,4.7227 -19.695,11.642 -28.233,18.298 -23.328,-6.6331 -50.03,-14.913 -62.883,-37.174 2.0084,-8.3994 11.471,-12.978 18.464,-17.015 12.073,-4.4341 24.655,-10.613 37.671,-10.267 10.87,7.1378 20.728,15.559 32.869,20.905 2.3828,8.5491 -14.562,2.6836 -20.12,4.4297 -12.417,-0.356 -10.517,0.3925 0.5382,1.4903 9.079,0.1231 19.164,4.2356 27.778,1.5731 1.146,-2.5119 5.6103,-7.334 0.4554,-8.0312 -11.763,-4.8092 -24.523,-10.381 -32.539,-20.533 -0.911,-7.3157 9.7284,-8.8105 13.951,-12.792 8.2083,-5.0653 17.847,-9.6186 25.376,-14.821 -0.5227,-8.4516 -11.269,-5.9288 -16.808,-7.6173 -7.6222,-0.832 -15.216,-1.7776 -22.852,-2.4839 10.224,3.2439 22.746,3.3119 31.751,8.7763 0.6376,6.2544 -9.5837,5.8089 -13.082,9.4801 -10.507,4.1117 -19.117,15.722 -31.213,14.199 -19.343,-7.5746 -39.03,-17.492 -53.196,-33.077 -6.1015,-6.9507 4.4123,-12.485 9.2731,-15.814 17.468,-10.736 38.97,-18.479 59.488,-14.655 7.9526,12.028 19.538,22.452 33.615,26.081 -10.383,-7.6654 -23.945,-15.187 -28.233,-28.192 2.2556,-8.1203 13.746,-7.2081 20.367,-9.1906 9.2591,-1.454 18.609,-2.0023 27.944,-2.815 -12.978,-7.8029 -26.632,-17.09 -34.112,-30.511 0.5564,-7.8671 11.892,-7.8091 17.015,-11.426 10.777,-3.8562 -3.5692,-0.1101 -6.4994,0.6624 -6.7237,1.909 -13.682,3.6921 -19.789,6.8306 2.8637,6.7912 8.9079,12 11.136,19.002 -4.5558,3.0792 -9.1836,1.5323 -1.4488,3.4774 4.4984,-0.111 14.361,5.0862 9.0248,9.7699 -10.284,3.0839 -21.016,5.0326 -31.007,8.7763 -15.832,-3.4823 -28.83,-15.61 -38.375,-28.233 -4.3965,-4.4388 -1.4911,-10.976 4.4297,-11.798 10.276,-4.1364 21.245,-6.1582 32.084,-8.4037 -85.242,-35.075 -171.63,-67.606 -255.63,-105.52 61.656,33.849 127.61,58.523 192.7,84.906 12.865,5.6423 26.861,9.4793 38.914,16.559 0.9648,6.8499 -9.3775,6.5433 -13.661,9.2731 -4.1148,2.2269 -10.973,3.9054 -12.751,8.3624 4.9883,13.988 16.22,24.151 24.674,35.726 -4.2952,5.9613 -14.768,6.5821 -21.32,10.556 -9.7239,6.8815 -18.811,-4.3231 -28.026,-7.12 -63.197,-32.295 -129.31,-60.389 -186.66,-102.63 -28.08,-20.667 -53.213,-50.049 -55.39,-86.479 -0.5371,-8.6955 -1.443,-17.804 0.4969,-26.328 6.0602,-3.4486 12.674,4.3742 18.629,5.7129 102.08,51.82 208.03,95.752 314.04,139.1 -38.192,-28.868 -79.708,-56.304 -107.3,-96.332 -10.247,-15.443 -16.068,-34.752 -12.833,-53.072 0.6647,0.07 1.3957,-0.5211 2.0697,-0.5381 z m 52.575,2.1526 c 0.2269,0.036 0.4362,0.093 0.6623,0.2066 21.056,18.27 40.02,38.628 63.091,54.769 48.574,36.77 104.32,62.73 161.74,83.086 37.712,13.263 73.692,42.297 81.305,83.416 6.9039,28.011 -5.0307,55.458 -15.276,80.933 -9.3054,22.995 -8.9784,48.731 -6.7477,73.15 10.025,43.477 48.502,74.872 88.26,90.62 22.633,8.9588 48.058,4.5946 72.032,4.3055 16.109,-0.4331 33.702,-5.5942 48.933,1.9045 2.085,6.5759 -9.0329,5.3045 -12.751,7.3274 -41.476,9.7014 -84.751,18.493 -127.13,8.6521 -48.313,-9.9563 -94.619,-44.748 -107.06,-93.932 -3.5371,-20.996 -1.8791,-43.03 5.5885,-62.842 13.136,-41.797 17.09,-90.395 -4.802,-129.95 -16.462,-30.405 -48.625,-47.843 -81.18,-55.887 -46.325,-14.055 -88.798,-40.874 -122.79,-75.013 -19.642,-19.255 -37.167,-41.599 -46.614,-67.727 -0.3668,-1.7189 1.1446,-3.2816 2.7323,-3.022 z m -286.05,151.76 c 0.1754,-0.019 0.3632,0 0.5383,0.041 54.467,22.472 108.85,45.49 164.43,64.994 31.29,12.041 63.941,20.569 95.008,32.911 8.9015,6.1102 15.224,15.614 22.189,23.928 2.3122,6.0125 -6.4868,4.0311 -9.4387,2.815 -75.064,-21.757 -148.2,-49.962 -221.48,-77.041 63.816,30.354 131.89,50.921 198.66,74.06 15.568,5.6888 32.325,9.2972 47.194,16.145 -2.7447,6.8611 -13.377,7.6961 -18.877,12.916 -4.8885,4.1383 -12.762,7.5861 -14.655,14.034 4.2535,13.647 17.8,21.59 27.737,31.09 3.1653,6.278 -5.8444,6.3782 -9.5628,7.1619 -7.1777,3.5711 -15.271,5.6259 -22.397,0.4553 -68.486,-29.478 -139.57,-54.286 -203.18,-93.683 -28.42,-18.231 -58.619,-43.277 -62.22,-79.277 0.2693,-9.911 -0.4838,-21.252 4.5535,-30.014 0.4422,-0.2729 0.965,-0.5053 1.4904,-0.5382 z m 6.9135,171.26 c 81.464,18.162 163.58,33.371 246.32,44.503 5.032,5.3068 -6.6388,11.125 -8.7763,16.476 -3.535,3.4089 -5.9012,8.263 -1.7388,12.171 2.2227,7.1097 -7.9273,3.9161 -11.591,3.3532 -56.395,-9.7412 -112.18,-22.85 -168.53,-32.788 60.2,18.16 122.89,27.522 184.64,39.535 15.882,4.4684 30.248,13.22 46.78,15.648 12.788,0.9039 1.5767,9.4055 -3.8086,12.585 -8.7442,6.4686 -14.8,16.246 -21.03,24.963 -8.8976,2.8413 -18.777,-2.1515 -27.984,-2.1113 -51.408,-7.4898 -103.51,-13.327 -153.34,-28.441 -31.965,-9.8356 -65.145,-28.62 -76.875,-61.89 -4.8292,-13.401 -7.6609,-27.975 -6.8719,-42.184 0.341,-1.1704 1.6445,-1.9572 2.815,-1.8216 z m 284.52,152.43 c 13.196,5.6433 27.599,5.4596 41.563,6.3754 1.6953,7.1835 -12.835,6.7725 -17.76,10.515 -50.043,18.61 -101.86,34.837 -154.12,44.544 40.243,-1.5383 78.794,-15.742 117.2,-26.744 17.45,-4.9588 34.64,-12.114 52.286,-15.731 4.6691,5.0635 -4.6942,10.31 -6.3753,15.276 -2.4929,5.0707 -8.6,13.691 -0.5795,16.973 5.5919,5.3823 14.296,6.9816 19.043,13.082 -0.9212,6.3174 -10.74,4.762 -15.359,7.3274 -52.075,13.641 -105.09,27.063 -159.26,27.24 -31.474,-0.4471 -68.059,-4.2718 -89.336,-30.22 -2.5078,-4.215 -9.1719,-8.6665 -6.8306,-14.034 49.898,-9.9883 99.95,-21.045 149.16,-34.899 23.573,-6.084 46.838,-13.886 70.376,-19.706 z m 101.88,67.685 0.7452,0.1245 c 5.4201,4.4306 -5.0143,8.1426 -7.7829,10.763 -40.186,26.324 -81.83,50.409 -123.57,74.226 32.888,-11.249 62.026,-31.028 91.944,-48.187 15.041,-8.6407 29.295,-18.97 44.875,-26.453 5.5834,3.5103 -1.1054,11.151 -1.2834,16.104 -1.0668,6.267 -5.1078,13.881 -3.3532,19.829 5.246,0.9579 8.0036,7.4912 1.7802,9.6457 -33.87,20.399 -68.699,40.084 -105.52,54.686 -28.639,10.713 -61.182,18.801 -91.117,8.7763 -9.4508,-4.2558 -21.674,-8.1855 -26.287,-18.049 1.4279,-6.176 10.303,-4.4698 14.406,-8.0728 57.626,-26.821 112.64,-59.09 168.82,-88.756 11.349,-4.3098 24.149,-1.4517 35.892,-4.6366 h 0.4552 z m 74.062,42.558 c 0.3974,0.027 0.7947,0.1127 1.2004,0.2481 0.509,15.604 -1.9915,32.108 1.449,47.277 -36.615,35.53 -76.464,69.456 -122.21,93.103 -21.035,10.419 -47.35,20.012 -69.549,7.2861 -5.0885,-1.6395 -6.3372,-7.6783 -1.1592,-10.308 44.087,-41.684 88.805,-82.957 135.16,-122.08 7.0753,-6.8589 17.732,-4.941 26.494,-7.9071 5.2182,-2.2787 7.1425,4.2639 2.6081,6.7064 -32.186,34.54 -67.523,66.031 -101.76,98.568 40.947,-28.502 75.555,-65.034 111.52,-99.397 5.1785,-2.9426 10.265,-13.93 16.228,-13.496 z m 360.32,2.3595 1.4488,0.1245 h 0.082 c 6.1603,4.2509 9.2533,13.699 5.0505,20.616 -7.016,17.228 -14.345,37.301 -31.545,46.614 -6.9568,-1.242 -2.7287,-11.202 -3.1462,-15.98 0.3244,-11.241 2.2889,-23.018 11.343,-30.675 6.3157,-6.2838 10.014,-15.068 16.766,-20.699 z m -59.282,28.192 c 0.7456,0.077 1.4669,0.4603 2.1526,1.1591 -0.8219,15.992 -7.3301,31.602 -12.212,46.863 -8.5795,20.748 -17.669,44.792 -39.08,55.266 -6.1039,2.0046 -6.317,-6.2177 -3.9329,-9.7699 5.6299,-19.918 7.9417,-41.136 16.269,-60.109 5.7502,-4.1897 5.9471,6.0693 5.0092,9.4802 3.5252,-17.468 17.742,-29.999 29.557,-42.101 0.7228,-0.6421 1.4895,-0.8639 2.2357,-0.7865 z m -252.44,8.4866 c 0.4864,0.1075 1.0105,0.5127 1.4903,0.5795 4.1401,10.84 9.2201,21.351 14.324,31.712 -2.4757,10.642 -12.345,18.362 -18.298,27.282 -26.626,31.041 -56.208,64.23 -97.244,75.219 -8.4679,1.3634 -17.639,2.3433 -25.915,0.4968 0.4002,-7.19 9.6339,-11.994 13.33,-18.174 28.586,-32.98 52.722,-69.654 78.78,-104.57 6.3918,-2.9578 11.594,-8.0881 18.256,-10.35 5.7169,2.9454 -1.3107,9.9797 -2.5667,14.116 -13.472,25.463 -29.818,50.742 -44.958,74.309 23.94,-27.461 41.634,-60.281 61.973,-90.329 0.2404,-0.2964 0.5363,-0.3546 0.8278,-0.2897 z m 68.472,3.7258 1.2418,0.7453 0.4142,0.2896 c 1.8299,16.91 -9.2125,31.925 -15.069,47.11 -7.2643,15.42 -15.075,30.594 -22.106,46.117 15.056,-20.565 24.854,-44.899 35.643,-67.893 6.7697,-3.3175 7.0993,8.4665 8.6936,12.212 10.052,-0.1822 18.432,-7.3166 27.903,-8.2381 3.258,5.4669 -4.9786,11.045 -6.7064,16.311 -20.582,31.56 -43.015,64.26 -76.048,83.79 -7.4318,3.1814 -16.638,8.2206 -24.632,5.2162 -1.369,-7.396 5.434,-14.733 7.1618,-22.023 13.042,-29.718 22.302,-61.206 36.844,-90.165 9.407,-7.1914 17.084,-16.815 26.66,-23.473 z m 131.64,13.454 c 0.085,1e-4 0.1669,0.045 0.2486,0.082 4.9739,4.2658 -2.1003,11.354 -3.0633,16.228 -10.26,20.628 -19.379,42.193 -32.746,60.98 -3.3643,2.5886 -10.482,9.9572 -13.785,4.0985 7.0623,-14.972 17.666,-28.945 25.376,-43.965 7.6681,-12.043 12.689,-26.63 22.148,-37.135 0.547,0.5241 1.227,-0.2906 1.8214,-0.2897 z m -16.187,4.2225 c 0.2662,0.019 0.5137,0.027 0.7866,0.082 3.8204,5.0209 -3.4893,11.285 -4.678,16.394 -16.985,33.303 -34.978,68.642 -66.195,90.703 -8.1809,3.9544 -16.706,10.075 -25.998,9.9768 -5.1944,-5.289 3.7836,-12.292 4.6778,-18.008 14.162,-31.172 25.586,-64.144 39.784,-95.174 5.422,1.5569 10.413,13.62 6.9549,19.706 -4.9424,12.745 -9.9716,25.444 -14.862,38.211 9.2228,-13.666 14.335,-29.648 22.355,-43.798 8.2559,-5.0777 18.605,-6.4831 26.453,-12.709 3.4352,-1.6148 6.7274,-5.6319 10.722,-5.3817 z m 22.769,5.1747 c 0.5424,0.019 1.0887,0.2314 1.6975,0.621 2.0274,8.2487 -3.1905,17.03 -4.5953,25.293 -3.438,8.2608 -3.2822,18.968 -9.0248,25.709 -6.2015,2.7293 -11.638,9.3992 -18.712,9.2731 -5.1735,-4.1312 3.8254,-12.026 4.8849,-17.139 7.734,-14.539 15.144,-29.332 24.094,-43.136 0.6067,-0.4715 1.1136,-0.6414 1.6559,-0.6211 z m -95.05,27.24 c 0.6374,0 1.2578,0.2211 1.6974,0.5795 1.5284,7.3531 -4.8593,14.523 -6.8306,21.526 -11.146,23.42 -20.125,48.419 -35.23,69.632 -7.7385,6.8534 -17.563,11.168 -26.908,15.317 -5.9707,-3.2676 3.0779,-9.3184 4.678,-12.916 23.609,-28.896 40.947,-62.196 60.897,-93.518 0.4412,-0.416 1.0599,-0.6238 1.6974,-0.621 z"
             inkscape:connector-curvature="0"
             style="fill:#dfc6b6"
             id="path3140" />
        </g>
      </g>
    </g>
  </g>
  <metadata
     id="metadata3163">
    <rdf:RDF>
      <cc:Work>
        <dc:format>image/svg+xml</dc:format>
        <dc:type
           rdf:resource="http://purl.org/dc/dcmitype/StillImage" />
        <cc:license
           rdf:resource="http://creativecommons.org/licenses/publicdomain/" />
        <dc:publisher>
          <cc:Agent
             rdf:about="http://openclipart.org/">
            <dc:title>Openclipart</dc:title>
          </cc:Agent>
        </dc:publisher>
        <dc:title></dc:title>
        <dc:date>2010-01-05T16:57:22</dc:date>
        <dc:description>A drawing of a wing of mythological bird. For any purpose.</dc:description>
        <dc:source>https://openclipart.org/detail/28808/archaic-drawing-of-a-bird-wing-by-purzen</dc:source>
        <dc:creator>
          <cc:Agent>
            <dc:title>purzen</dc:title>
          </cc:Agent>
        </dc:creator>
        <dc:subject>
          <rdf:Bag>
            <rdf:li>animal</rdf:li>
            <rdf:li>bird</rdf:li>
            <rdf:li>cartoon</rdf:li>
            <rdf:li>folktale</rdf:li>
            <rdf:li>mythology</rdf:li>
            <rdf:li>nature</rdf:li>
            <rdf:li>outline</rdf:li>
            <rdf:li>sign</rdf:li>
            <rdf:li>symbol</rdf:li>
            <rdf:li>unchecked</rdf:li>
          </rdf:Bag>
        </dc:subject>
      </cc:Work>
      <cc:License
         rdf:about="http://creativecommons.org/licenses/publicdomain/">
        <cc:permits
           rdf:resource="http://creativecommons.org/ns#Reproduction" />
        <cc:permits
           rdf:resource="http://creativecommons.org/ns#Distribution" />
        <cc:permits
           rdf:resource="http://creativecommons.org/ns#DerivativeWorks" />
      </cc:License>
    </rdf:RDF>
  </metadata>
</svg>
